<svg width="56" height="68" viewBox="0 0 56 68" fill="none" xmlns="http://www.w3.org/2000/svg">
<path d="M20.6958 58.9075C18.471 63.5004 12.9363 65.4162 8.33373 63.1867C3.73114 60.9572 1.80358 55.4266 4.02839 50.8337C5.74878 47.2822 14.7723 41.3552 18.7756 38.8502C19.6809 38.2836 20.8408 38.8455 20.9575 39.9071C21.4734 44.6013 22.4162 55.356 20.6958 58.9075Z" fill="#8FAFC6"/>
<path d="M46.9639 45.3011C44.7391 49.8939 39.2044 51.8098 34.6018 49.5803C29.9992 47.3507 28.0716 41.8201 30.2965 37.2273C32.0168 33.6757 41.0404 27.7488 45.0437 25.2437C45.949 24.6772 47.1089 25.239 47.2256 26.3006C47.7415 30.9948 48.6843 41.7496 46.9639 45.3011Z" fill="#8FAFC6"/>
<path d="M27.1206 25.2691C24.8958 29.862 19.3611 31.7778 14.7585 29.5483C10.1559 27.3188 8.22838 21.7881 10.4532 17.1953C12.1736 13.6437 21.1971 7.71678 25.2004 5.21172C26.1058 4.64522 27.2656 5.20706 27.3823 6.26864C27.8982 10.9629 28.841 21.7176 27.1206 25.2691Z" fill="#8FAFC6"/>
</svg>
