<svg width="80" height="78" viewBox="0 0 80 78" fill="none" xmlns="http://www.w3.org/2000/svg">
<g clip-path="url(#clip0_3_1490)">
<path d="M35.193 61.303L30.7066 59.1673L35.9974 57.2382C36.7231 56.9806 37.0741 56.2431 36.8166 55.5173C36.559 54.7916 35.8215 54.4405 35.0957 54.6981L27.2035 57.4996L23.1472 55.5686L25.1367 51.3895L32.9382 48.6202C33.6639 48.3626 34.015 47.6251 33.7574 46.8993C33.4998 46.1736 32.7623 45.8226 32.0366 46.0801L26.7751 47.9478L28.8524 43.5843C29.1742 42.9082 28.8844 42.0918 28.2084 41.77C27.5323 41.4482 26.7159 41.738 26.3941 42.414L24.3168 46.7776L22.4491 41.516C22.1915 40.7903 21.454 40.4393 20.7283 40.6968C20.0025 40.9544 19.6515 41.6919 19.9091 42.4177L22.6783 50.2192L20.6889 54.3983L16.6326 52.4674L13.8311 44.5751C13.5735 43.8494 12.836 43.4983 12.1103 43.7559C11.3845 44.0135 11.0335 44.751 11.2911 45.4768L13.191 50.829L8.70449 48.6932C8.02847 48.3714 7.21203 48.6612 6.89021 49.3372C6.56839 50.0132 6.8582 50.8297 7.53422 51.1515L11.8977 53.2287L6.72696 55.0642C6.00127 55.3218 5.65018 56.0593 5.90775 56.7851C6.03657 57.1479 6.28534 57.4171 6.59261 57.5634C6.89988 57.7097 7.26572 57.7331 7.62855 57.6042L15.3394 54.8671L19.5185 56.8566L17.5583 60.9743L9.75683 63.7437C9.03113 64.0013 8.68005 64.7388 8.93762 65.4646C9.19519 66.1903 9.93272 66.5413 10.6585 66.2838L15.92 64.4161L13.8135 68.8411C13.4917 69.5171 13.7815 70.3336 14.4575 70.6554C15.1335 70.9772 15.95 70.6874 16.2425 70.0728L18.3783 65.5863L20.246 70.8478C20.3748 71.2107 20.6236 71.4799 20.9309 71.6262C21.2381 71.7724 21.604 71.7959 21.9668 71.667C22.6925 71.4094 23.0436 70.6719 22.786 69.9462L20.0166 62.1447L21.9769 58.027L26.156 60.0164L28.8931 67.7273C29.0219 68.0902 29.2707 68.3593 29.578 68.5056C29.8853 68.6519 30.2511 68.6753 30.5847 68.6079C31.3104 68.3503 31.6614 67.6128 31.4039 66.8871L29.5362 61.6256L33.9612 63.7321C34.6372 64.0539 35.5151 63.7933 35.8369 63.1173C36.1588 62.4413 35.869 61.6248 35.193 61.303Z" fill="white"/>
</g>
<g clip-path="url(#clip1_3_1490)">
<path d="M72.8187 47.6752C72.3142 47.3113 71.6037 47.4264 71.2399 47.9309L70.9753 48.2978L67.673 45.9163L71.1795 45.3078C71.811 45.2055 72.2079 44.6551 72.1056 44.0235C72.0034 43.392 71.453 42.9951 70.8214 43.0974L65.0587 44.031L62.9947 42.5425L64.5493 40.3869L70.3121 39.4534C70.9436 39.3511 71.3405 38.8007 71.2383 38.1691C71.136 37.5376 70.5856 37.1407 69.954 37.243L66.4017 37.8184L68.8163 34.4703L69.1373 34.7019C69.6418 35.0657 70.3523 34.9506 70.7161 34.4461C71.08 33.9416 70.9649 33.2311 70.4604 32.8672L67.9378 31.048C67.4333 30.6842 66.7228 30.7993 66.359 31.3038C65.9951 31.8083 66.1102 32.5187 66.6147 32.8826L66.9816 33.1472L64.567 36.4953L63.9916 32.9429C63.8893 32.3114 63.3389 31.9145 62.7073 32.0168C62.0758 32.1191 61.6789 32.6695 61.7812 33.301L62.6816 39.1096L61.1601 41.2194L58.821 39.5325L57.8875 33.7698C57.7852 33.1383 57.2348 32.7413 56.6033 32.8436C55.9718 32.9459 55.5749 33.4963 55.6772 34.1279L56.2526 37.6802L53.1338 35.431L53.3984 35.0641C53.7623 34.5596 53.6472 33.8491 53.1427 33.4853C52.6382 33.1215 51.9277 33.2366 51.5639 33.7411L49.7446 36.2636C49.3808 36.7681 49.4959 37.4786 50.0004 37.8425C50.4591 38.1732 51.1695 38.0581 51.5792 37.5867L51.8438 37.2197L54.9626 39.469L51.4103 40.0444C50.7787 40.1467 50.3818 40.6971 50.4841 41.3287C50.5352 41.6444 50.6984 41.9015 50.9277 42.0669C51.157 42.2323 51.4525 42.306 51.6894 42.2676L57.531 41.3213L59.8701 43.0082L58.1832 45.3473L52.3874 46.3266C51.7559 46.4289 51.359 46.9793 51.4613 47.6109C51.5635 48.2424 52.1139 48.6393 52.7455 48.537L56.2979 47.9616L54.0486 51.0804L53.6817 50.8158C53.1772 50.4519 52.4668 50.567 52.1029 51.0715C51.7391 51.576 51.8542 52.2865 52.3587 52.6503L54.8813 54.4696C55.3858 54.8334 56.0962 54.7183 56.4601 54.2138C56.8239 53.7093 56.7088 52.9988 56.2043 52.635L55.8832 52.4034L58.1325 49.2847L58.7079 52.837C58.7591 53.1528 58.9222 53.4099 59.1516 53.5753C59.3809 53.7406 59.6764 53.8143 59.9921 53.7632C60.6236 53.6609 61.0205 53.1105 60.9183 52.4789L59.9847 46.7162L61.7047 44.3312L63.7686 45.8197L64.7022 51.5824C64.7533 51.8982 64.9165 52.1553 65.1458 52.3207C65.3751 52.4861 65.6706 52.5598 65.9533 52.5544C66.5848 52.4521 66.9817 51.9018 66.8794 51.2702L66.2912 47.6389L69.6852 50.0866L69.4206 50.4535C69.0567 50.958 69.1718 51.6685 69.6763 52.0323C70.1808 52.3961 70.8913 52.281 71.2551 51.7765L73.0744 49.254C73.4383 48.7495 73.3232 48.039 72.8187 47.6752Z" fill="white"/>
</g>
<g clip-path="url(#clip2_3_1490)">
<path d="M41.6682 22.7359C41.926 22.4032 41.8652 21.9243 41.5325 21.6665L40.6373 20.9729L42.3407 20.7568C42.7583 20.7038 43.0539 20.3223 43.0009 19.9047C42.9478 19.4872 42.5664 19.1916 42.1488 19.2445L38.9331 19.6525L38.2716 19.1399L39.7299 18.1639C40.0797 17.9298 40.1734 17.4563 39.9392 17.1065L39.0611 15.7944L43.2819 15.259C43.6996 15.206 43.9952 14.8245 43.9421 14.4069C43.8891 13.9893 43.5076 13.6938 43.09 13.7467L38.9975 14.2659L39.3384 12.5447C39.4203 12.1317 39.1516 11.7304 38.7389 11.6489L37.1901 11.342L37.7819 10.5782L40.9977 10.1703C41.4152 10.1173 41.7109 9.73573 41.6579 9.31816C41.6049 8.90055 41.2234 8.60501 40.8058 8.65794L39.1025 8.87409L39.7961 7.97883C40.0538 7.646 39.9931 7.16716 39.6603 6.90935C39.3276 6.65154 38.8488 6.71229 38.591 7.04502L37.8973 7.94022L37.6813 6.23686C37.6282 5.8192 37.2468 5.52371 36.8292 5.57663C36.4116 5.62961 36.116 6.01116 36.169 6.42872L36.5769 9.64444L35.9851 10.4083L35.3012 8.98511C35.1189 8.60561 34.6635 8.44583 34.2841 8.6283L32.7026 9.38821L32.1834 5.29569C32.1302 4.87809 31.7489 4.5826 31.3313 4.63546C30.9137 4.6885 30.6181 5.06998 30.6711 5.48755L31.2065 9.70839L29.7167 9.1857C29.3196 9.04631 28.8845 9.25527 28.7451 9.65246L28.1642 11.3082L27.5026 10.7956L27.0946 7.57989C27.0415 7.16234 26.6601 6.86679 26.2425 6.91966C25.8249 6.97265 25.5293 7.35414 25.5823 7.77175L25.7984 9.47509L24.9032 8.78146C24.5705 8.52371 24.0916 8.58446 23.8338 8.91719C23.576 9.24991 23.6368 9.72876 23.9695 9.98657L24.8647 10.6802L23.1613 10.8962C22.7437 10.9492 22.4481 11.3307 22.5011 11.7483C22.5276 11.9572 22.6362 12.1354 22.7904 12.2549C22.9446 12.3744 23.1443 12.435 23.3532 12.4086L26.5689 12.0006L27.3327 12.5924L25.9096 13.2762C25.7274 13.3638 25.5874 13.5201 25.5204 13.7109C25.4535 13.9017 25.4651 14.1112 25.5527 14.2935L26.3126 15.875L22.2201 16.3942C21.8025 16.4472 21.5069 16.8287 21.5599 17.2463C21.5864 17.4551 21.695 17.6334 21.8492 17.7529C22.0034 17.8724 22.2031 17.933 22.412 17.9065L26.6328 17.371L26.1101 18.8609C25.9985 19.1786 26.1099 19.5204 26.3622 19.7159C26.4253 19.7648 26.4973 19.8045 26.5768 19.8325L28.2326 20.4135L27.7201 21.075L24.5044 21.4829C24.0868 21.5359 23.7912 21.9174 23.8441 22.335C23.8973 22.7526 24.2786 23.0481 24.6962 22.9952L26.3996 22.7791L25.7059 23.6743C25.4481 24.007 25.5089 24.4859 25.8416 24.7437C26.1743 25.0015 26.6532 24.9407 26.911 24.608L27.6046 23.7128L27.8206 25.4162C27.8472 25.625 27.9557 25.8033 28.1099 25.9228C28.2642 26.0422 28.4639 26.1028 28.6727 26.0764C29.0903 26.0234 29.3859 25.6419 29.333 25.2243L28.925 22.0086L29.4375 21.3471L30.4136 22.8054C30.4604 22.8754 30.5169 22.9351 30.5801 22.9841C30.8324 23.1796 31.1912 23.202 31.4709 23.0147L32.7831 22.1365L33.3186 26.3573C33.3451 26.5661 33.4537 26.7444 33.6079 26.8639C33.7621 26.9834 33.9618 27.0439 34.1707 27.0175C34.5883 26.9646 34.884 26.583 34.8309 26.1654L34.3117 22.073L36.033 22.414C36.2314 22.4532 36.4371 22.4122 36.6051 22.2997C36.7731 22.1873 36.8896 22.0126 36.9289 21.8143L37.2357 20.2656L37.9994 20.8574L38.4074 24.0731C38.4339 24.2819 38.5425 24.4602 38.6967 24.5797C38.8509 24.6992 39.0506 24.7597 39.2595 24.7333C39.6771 24.6803 39.9727 24.2988 39.9197 23.8812L39.7035 22.1779L40.5987 22.8715C40.9315 23.1294 41.4104 23.0686 41.6682 22.7359ZM37.0014 18.1556L34.6961 16.3694C34.6982 16.3621 34.7006 16.3547 34.7025 16.3473L37.3703 16.0088L38.2485 17.3209L37.0014 18.1556ZM32.3594 15.5231C32.5267 15.3071 32.8385 15.2676 33.0545 15.4349C33.2704 15.6022 33.3099 15.9141 33.1426 16.13C32.9753 16.3459 32.6635 16.3855 32.4475 16.2182C32.2316 16.0509 32.1921 15.739 32.3594 15.5231ZM37.695 12.996L37.4035 14.468L34.5107 14.835C34.5069 14.8283 34.5027 14.8218 34.4989 14.8152L36.1462 12.6892L37.695 12.996ZM34.2573 10.3323L34.9411 11.7555L33.2938 13.8815C33.2865 13.8794 33.2791 13.877 33.2717 13.875L32.9048 10.9822L34.2573 10.3323ZM29.9312 10.8764L31.421 11.3991L31.7594 14.0669C31.7528 14.0706 31.7463 14.0748 31.7396 14.0786L29.4344 12.2924L29.9312 10.8764ZM27.2568 14.3203L28.68 13.6364L30.8059 15.2837C30.8039 15.291 30.8015 15.2984 30.7995 15.3058L27.9067 15.6728L27.2568 14.3203ZM27.8008 18.6464L28.3235 17.1566L30.9913 16.8181C30.9951 16.8248 30.9993 16.8313 31.0031 16.8379L29.2169 19.1432L27.8008 18.6464ZM31.2566 21.324L30.4219 20.0769L32.2081 17.7717C32.2155 17.7738 32.2228 17.7761 32.2303 17.7781L32.5687 20.4459L31.2566 21.324ZM34.1096 20.4789L33.7426 17.5861C33.7493 17.5824 33.7558 17.5782 33.7624 17.5744L35.8884 19.2216L35.5816 20.7705L34.1096 20.4789Z" fill="white"/>
</g>
<defs>
<clipPath id="clip0_3_1490">
<rect width="32.0595" height="32.0595" fill="white" transform="translate(13.7803 34.8638) rotate(25.4567)"/>
</clipPath>
<clipPath id="clip1_3_1490">
<rect width="26.634" height="26.634" fill="white" transform="translate(58.3979 24.168) rotate(35.7984)"/>
</clipPath>
<clipPath id="clip2_3_1490">
<rect width="22.5615" height="22.5615" fill="white" transform="translate(30.7432) rotate(37.7698)"/>
</clipPath>
</defs>
</svg>
