<svg width="267" height="259" viewBox="0 0 267 259" fill="none" xmlns="http://www.w3.org/2000/svg">
<g clip-path="url(#clip0_3_1489)">
<path d="M117.456 204.599L102.483 197.471L120.141 191.033C122.563 190.173 123.734 187.712 122.875 185.289C122.015 182.867 119.554 181.696 117.131 182.555L90.7911 191.905L77.2534 185.461L83.8933 171.513L109.931 162.27C112.353 161.411 113.525 158.949 112.665 156.527C111.805 154.105 109.344 152.933 106.922 153.793L89.3614 160.026L96.2943 145.463C97.3684 143.207 96.4011 140.482 94.1449 139.408C91.8887 138.334 89.1638 139.301 88.0898 141.557L81.1569 156.121L74.9235 138.56C74.0638 136.138 71.6024 134.966 69.1802 135.826C66.758 136.686 65.5864 139.147 66.446 141.569L75.6885 167.607L69.0487 181.555L55.511 175.11L46.161 148.77C45.3012 146.348 42.8398 145.176 40.4176 146.036C37.9954 146.895 36.8239 149.357 37.6835 151.779L44.0245 169.642L29.0509 162.514C26.7947 161.44 24.0698 162.407 22.9957 164.663C21.9217 166.919 22.8889 169.644 25.1451 170.718L39.7084 177.651L22.4509 183.777C20.0289 184.637 18.8571 187.098 19.7168 189.52C20.1467 190.732 20.977 191.63 22.0025 192.118C23.028 192.606 24.249 192.684 25.4599 192.254L51.1948 183.119L65.1427 189.759L58.6004 203.502L32.5631 212.745C30.1411 213.605 28.9693 216.066 29.8289 218.488C30.6886 220.91 33.1501 222.082 35.5723 221.222L53.1326 214.989L46.1021 229.757C45.028 232.014 45.9953 234.738 48.2515 235.813C50.5077 236.887 53.2326 235.919 54.2091 233.868L61.3372 218.895L67.5706 236.455C68.0005 237.666 68.8308 238.564 69.8563 239.053C70.8818 239.541 72.1028 239.619 73.3138 239.189C75.7358 238.329 76.9075 235.868 76.0479 233.446L66.8051 207.408L73.3474 193.665L87.2953 200.305L96.4303 226.04C96.8603 227.251 97.6905 228.15 98.716 228.638C99.7416 229.126 100.963 229.204 102.076 228.979C104.498 228.12 105.67 225.658 104.81 223.236L98.5765 205.676L113.345 212.706C115.601 213.78 118.531 212.911 119.605 210.654C120.679 208.398 119.712 205.673 117.456 204.599Z" fill="white"/>
</g>
<g clip-path="url(#clip1_3_1489)">
<path d="M243.031 159.115C241.347 157.901 238.976 158.285 237.762 159.968L236.879 161.193L225.857 153.245L237.56 151.214C239.668 150.872 240.993 149.035 240.651 146.928C240.31 144.82 238.473 143.495 236.365 143.836L217.132 146.952L210.244 141.985L215.432 134.79L234.665 131.675C236.773 131.333 238.098 129.496 237.756 127.388C237.415 125.281 235.578 123.956 233.47 124.297L221.614 126.218L229.673 115.044L230.745 115.817C232.428 117.031 234.8 116.647 236.014 114.963C237.228 113.279 236.844 110.908 235.16 109.693L226.741 103.622C225.057 102.407 222.686 102.792 221.472 104.475C220.258 106.159 220.642 108.53 222.325 109.745L223.55 110.628L215.491 121.802L213.571 109.946C213.229 107.838 211.392 106.514 209.285 106.855C207.177 107.196 205.852 109.033 206.193 111.141L209.199 130.527L204.121 137.569L196.314 131.939L193.198 112.706C192.857 110.598 191.02 109.273 188.912 109.615C186.805 109.956 185.48 111.793 185.821 113.901L187.742 125.757L177.333 118.25L178.216 117.026C179.43 115.342 179.046 112.971 177.363 111.756C175.679 110.542 173.308 110.926 172.093 112.61L166.022 121.029C164.807 122.713 165.191 125.084 166.875 126.298C168.406 127.402 170.777 127.018 172.144 125.445L173.028 124.22L183.437 131.727L171.581 133.647C169.473 133.989 168.148 135.826 168.49 137.933C168.66 138.987 169.205 139.845 169.97 140.397C170.735 140.949 171.722 141.195 172.512 141.067L192.009 137.909L199.815 143.539L194.185 151.346L174.842 154.614C172.734 154.956 171.409 156.792 171.751 158.9C172.092 161.008 173.929 162.333 176.037 161.991L187.893 160.071L180.386 170.48L179.162 169.597C177.478 168.382 175.107 168.766 173.892 170.45C172.678 172.134 173.062 174.505 174.746 175.719L183.165 181.791C184.849 183.005 187.22 182.621 188.434 180.937C189.649 179.254 189.265 176.883 187.581 175.668L186.509 174.895L194.016 164.486L195.937 176.343C196.107 177.396 196.652 178.254 197.417 178.806C198.182 179.358 199.169 179.604 200.222 179.433C202.33 179.092 203.655 177.255 203.314 175.147L200.198 155.914L205.938 147.954L212.827 152.922L215.942 172.155C216.113 173.209 216.658 174.067 217.423 174.619C218.188 175.171 219.174 175.417 220.118 175.399C222.225 175.058 223.55 173.221 223.209 171.113L221.246 158.994L232.573 167.163L231.69 168.387C230.476 170.071 230.86 172.442 232.544 173.657C234.227 174.871 236.599 174.487 237.813 172.803L243.885 164.384C245.099 162.7 244.715 160.329 243.031 159.115Z" fill="white"/>
</g>
<g clip-path="url(#clip2_3_1489)">
<path d="M139.067 75.8809C139.928 74.7704 139.725 73.1723 138.614 72.3118L135.627 69.9968L141.312 69.2758C142.705 69.0988 143.692 67.8256 143.515 66.4319C143.338 65.0384 142.065 64.052 140.671 64.2285L129.939 65.59L127.731 63.8794L132.598 60.6219C133.765 59.8404 134.078 58.2604 133.297 57.0929L130.366 52.7139L144.453 50.9267C145.847 50.7499 146.833 49.4767 146.656 48.0829C146.479 46.6893 145.206 45.7029 143.813 45.8794L130.154 47.6122L131.292 41.8678C131.565 40.4894 130.668 39.1502 129.291 38.8781L124.122 37.854L126.097 35.3047L136.829 33.9432C138.223 33.7664 139.21 32.4929 139.033 31.0993C138.856 29.7055 137.583 28.7192 136.189 28.8958L130.504 29.6172L132.819 26.6293C133.679 25.5185 133.477 23.9204 132.366 23.0599C131.256 22.1995 129.657 22.4022 128.797 23.5127L126.482 26.5004L125.761 20.8155C125.584 19.4216 124.311 18.4353 122.917 18.612C121.523 18.7888 120.537 20.0622 120.714 21.4558L122.075 32.1883L120.1 34.7375L117.817 29.9878C117.209 28.7212 115.689 28.1879 114.423 28.7969L109.145 31.3331L107.412 17.6743C107.234 16.2806 105.962 15.2944 104.568 15.4708C103.174 15.6478 102.188 16.921 102.364 18.3147L104.152 32.4017L99.1793 30.6572C97.8537 30.192 96.4018 30.8894 95.9366 32.215L93.9977 37.7412L91.7895 36.0303L90.428 25.2978C90.2508 23.9043 88.9778 22.9179 87.5841 23.0943C86.1901 23.2712 85.2036 24.5444 85.3806 25.9382L86.102 31.6231L83.1143 29.3081C82.0036 28.4478 80.4055 28.6506 79.5451 29.7611C78.6846 30.8715 78.8874 32.4697 79.9979 33.3301L82.9856 35.6451L77.3006 36.3662C75.9067 36.543 74.9201 37.8162 75.0971 39.21C75.1857 39.907 75.548 40.502 76.0627 40.9008C76.5773 41.2995 77.244 41.5017 77.941 41.4135L88.6734 40.0519L91.2224 42.027L86.4729 44.3093C85.8648 44.6015 85.3975 45.1234 85.174 45.76C84.9506 46.3968 84.9895 47.0959 85.2817 47.7043L87.8181 52.9828L74.1593 54.7156C72.7657 54.8924 71.779 56.1658 71.9558 57.5594C72.0444 58.2564 72.4067 58.8514 72.9214 59.2502C73.436 59.649 74.1027 59.8512 74.7997 59.7629L88.8867 57.9758L87.1421 62.9482C86.7699 64.0085 87.1416 65.1493 87.9835 65.8017C88.1941 65.9649 88.4345 66.0975 88.6999 66.1909L94.226 68.1298L92.5154 70.3376L81.783 71.6991C80.3894 71.8759 79.4027 73.1494 79.5795 74.543C79.7568 75.9367 81.0297 76.9229 82.4233 76.7465L88.1082 76.0251L85.7932 79.0128C84.9328 80.1233 85.1355 81.7214 86.246 82.5819C87.3565 83.4423 88.9546 83.2396 89.8151 82.1291L92.1301 79.1414L92.8511 84.8263C92.9397 85.5233 93.302 86.1183 93.8166 86.5171C94.3313 86.9158 94.9979 87.118 95.6949 87.0298C97.0886 86.853 98.0752 85.5796 97.8984 84.186L96.5369 73.4535L98.2475 71.2458L101.505 76.1127C101.661 76.3464 101.85 76.5459 102.061 76.7092C102.903 77.3617 104.1 77.4366 105.034 76.8115L109.413 73.8804L111.2 87.9673C111.289 88.6642 111.651 89.2592 112.166 89.658C112.681 90.0568 113.347 90.259 114.044 90.1708C115.438 89.9941 116.425 88.7207 116.248 87.3269L114.515 73.6685L120.26 74.8065C120.922 74.9375 121.608 74.8005 122.169 74.4252C122.73 74.05 123.119 73.467 123.25 72.8053L124.274 67.6362L126.823 69.6113L128.184 80.3438C128.273 81.0407 128.635 81.6357 129.15 82.0345C129.664 82.4333 130.331 82.6355 131.028 82.5473C132.422 82.3703 133.408 81.0971 133.232 79.7034L132.51 74.0185L135.498 76.3335C136.609 77.1941 138.207 76.9914 139.067 75.8809ZM123.492 60.5943L115.798 54.6329C115.805 54.6083 115.813 54.5838 115.819 54.559L124.723 53.4294L127.654 57.8084L123.492 60.5943ZM107.999 51.8082C108.557 51.0875 109.598 50.9555 110.319 51.5139C111.04 52.0723 111.172 53.1131 110.613 53.8337C110.055 54.5544 109.014 54.6865 108.293 54.1281C107.573 53.5696 107.441 52.5289 107.999 51.8082ZM125.807 43.3741L124.834 48.2868L115.179 49.5116C115.166 49.4894 115.152 49.4676 115.14 49.4456L120.638 42.35L125.807 43.3741ZM114.333 34.484L116.616 39.234L111.118 46.3293C111.093 46.3225 111.069 46.3144 111.044 46.3078L109.819 36.6531L114.333 34.484ZM99.895 36.2998L104.867 38.0443L105.997 46.9481C105.975 46.9607 105.953 46.9746 105.931 46.9874L98.237 41.026L99.895 36.2998ZM90.9692 47.7938L95.7191 45.5115L102.814 51.0092C102.808 51.0338 102.8 51.0583 102.793 51.083L93.1382 52.3078L90.9692 47.7938ZM92.785 62.2321L94.5294 57.2599L103.433 56.1303C103.446 56.1526 103.46 56.1743 103.472 56.1966L97.511 63.8903L92.785 62.2321ZM104.319 71.1688L101.533 67.0066L107.494 59.3128C107.519 59.3198 107.543 59.3277 107.568 59.3342L108.698 68.238L104.319 71.1688ZM113.84 68.3483L112.616 58.6936C112.638 58.6811 112.66 58.6671 112.682 58.6544L119.777 64.1521L118.753 69.3215L113.84 68.3483Z" fill="white"/>
</g>
<defs>
<clipPath id="clip0_3_1489">
<rect width="106.998" height="106.998" fill="white" transform="translate(45.9912 116.358) rotate(25.4567)"/>
</clipPath>
<clipPath id="clip1_3_1489">
<rect width="88.8909" height="88.8909" fill="white" transform="translate(194.902 80.6602) rotate(35.7984)"/>
</clipPath>
<clipPath id="clip2_3_1489">
<rect width="75.2989" height="75.2989" fill="white" transform="translate(102.605) rotate(37.7698)"/>
</clipPath>
</defs>
</svg>
