<svg width="189" height="228" viewBox="0 0 189 228" fill="none" xmlns="http://www.w3.org/2000/svg">
<path d="M92.718 85.5775C85.1834 101.132 66.4393 107.62 50.852 100.07C35.2647 92.519 28.7367 73.7887 36.2713 58.2343C42.0977 46.2065 72.6571 26.134 86.215 17.6503C89.281 15.7317 93.209 17.6345 93.6042 21.2297C95.3515 37.1273 98.5444 73.5497 92.718 85.5775Z" fill="#8FAFC6"/>
<path d="M159.92 153.42C152.386 168.974 133.641 175.463 118.054 167.912C102.467 160.361 95.9388 141.631 103.473 126.077C109.3 114.049 139.859 93.9763 153.417 85.4925C156.483 83.574 160.411 85.4768 160.806 89.072C162.554 104.97 165.747 141.392 159.92 153.42Z" fill="#8FAFC6"/>
<path d="M70.9597 199.5C63.4251 215.054 44.681 221.543 29.0937 213.992C13.5064 206.441 6.97838 187.711 14.513 172.157C20.3394 160.129 50.8988 140.056 64.4567 131.573C67.5227 129.654 71.4507 131.557 71.8459 135.152C73.5932 151.05 76.7861 187.472 70.9597 199.5Z" fill="#8FAFC6"/>
</svg>
