<svg width="125" height="54" viewBox="0 0 125 54" fill="none" xmlns="http://www.w3.org/2000/svg">
<path d="M5.90016 23V10.86H1.22016V8.4H13.4802V10.86H8.80016V23H5.90016ZM15.4191 23V8.4H18.1791V13.82H18.2191C18.6457 13.34 19.1257 12.9867 19.6591 12.76C20.2057 12.52 20.8391 12.4 21.5591 12.4C22.8391 12.4 23.7724 12.74 24.3591 13.42C24.9457 14.0867 25.2324 15.1467 25.2191 16.6V23H22.4791V17.14C22.4924 16.2733 22.3457 15.6467 22.0391 15.26C21.7457 14.86 21.2791 14.66 20.6391 14.66C20.1591 14.66 19.7324 14.76 19.3591 14.96C18.9991 15.1467 18.7124 15.4067 18.4991 15.74C18.2857 16.0733 18.1791 16.4533 18.1791 16.88V23H15.4191ZM32.8638 23.2C30.9971 23.2 29.5571 22.7333 28.5438 21.8C27.5438 20.8667 27.0438 19.5333 27.0438 17.8C27.0438 16.12 27.5038 14.8 28.4238 13.84C29.3438 12.88 30.6104 12.4 32.2237 12.4C33.7838 12.4 34.9838 12.8533 35.8238 13.76C36.6771 14.6667 37.1038 15.9533 37.1038 17.62C37.1038 17.8067 37.0971 18.02 37.0838 18.26C37.0838 18.5 37.0771 18.68 37.0638 18.8H28.5838V16.9H34.9238L34.5438 17.48C34.5438 16.44 34.3504 15.6667 33.9638 15.16C33.5904 14.6533 33.0104 14.4 32.2237 14.4C31.3971 14.4 30.7771 14.6667 30.3638 15.2C29.9504 15.72 29.7438 16.5 29.7438 17.54V18.34C29.7438 19.2733 29.9904 19.96 30.4838 20.4C30.9771 20.84 31.7304 21.06 32.7438 21.06C33.3171 21.06 33.9238 21.0067 34.5638 20.9C35.2038 20.7933 35.7704 20.6467 36.2638 20.46L36.5838 22.56C36.0904 22.76 35.5104 22.9133 34.8438 23.02C34.1904 23.14 33.5304 23.2 32.8638 23.2ZM46.2978 23L43.6178 12.6H46.4978L47.9378 20.46H47.9778L49.4578 12.6H52.9778L54.4778 20.46H54.5178L55.9578 12.6H58.8178L56.1578 23H52.7178L51.2378 15.26H51.1978L49.7178 23H46.2978ZM65.6177 23.2C63.751 23.2 62.311 22.7333 61.2977 21.8C60.2977 20.8667 59.7977 19.5333 59.7977 17.8C59.7977 16.12 60.2577 14.8 61.1777 13.84C62.0977 12.88 63.3643 12.4 64.9777 12.4C66.5377 12.4 67.7377 12.8533 68.5777 13.76C69.431 14.6667 69.8577 15.9533 69.8577 17.62C69.8577 17.8067 69.851 18.02 69.8377 18.26C69.8377 18.5 69.831 18.68 69.8177 18.8H61.3377V16.9H67.6777L67.2977 17.48C67.2977 16.44 67.1043 15.6667 66.7177 15.16C66.3443 14.6533 65.7643 14.4 64.9777 14.4C64.151 14.4 63.531 14.6667 63.1177 15.2C62.7043 15.72 62.4977 16.5 62.4977 17.54V18.34C62.4977 19.2733 62.7443 19.96 63.2377 20.4C63.731 20.84 64.4843 21.06 65.4977 21.06C66.071 21.06 66.6777 21.0067 67.3177 20.9C67.9577 20.7933 68.5243 20.6467 69.0177 20.46L69.3377 22.56C68.8443 22.76 68.2643 22.9133 67.5977 23.02C66.9443 23.14 66.2843 23.2 65.6177 23.2ZM74.5206 23.2C73.494 23.2 72.6806 22.9133 72.0806 22.34C71.494 21.7667 71.2006 21 71.2006 20.04C71.2006 18.84 71.6673 17.9133 72.6006 17.26C73.5473 16.6067 74.8873 16.28 76.6206 16.28H78.0006C78.0006 15.8133 77.9406 15.4533 77.8206 15.2C77.714 14.9467 77.5206 14.7733 77.2406 14.68C76.974 14.5733 76.5873 14.52 76.0806 14.52C75.414 14.52 74.7206 14.5933 74.0006 14.74C73.2806 14.8733 72.6006 15.0667 71.9606 15.32L71.6206 13.2C72.314 12.9467 73.0806 12.7533 73.9206 12.62C74.774 12.4733 75.6206 12.4 76.4606 12.4C77.5273 12.4 78.3673 12.5267 78.9806 12.78C79.594 13.0333 80.0406 13.46 80.3206 14.06C80.6006 14.6467 80.7406 15.44 80.7406 16.44V23H78.1206L78.0806 21.8H78.0606C77.6873 22.2267 77.174 22.5667 76.5206 22.82C75.8673 23.0733 75.2006 23.2 74.5206 23.2ZM75.5206 21.12C75.9873 21.12 76.4073 21.04 76.7806 20.88C77.154 20.72 77.4473 20.5 77.6606 20.22C77.8873 19.9267 78.0006 19.6067 78.0006 19.26V18.08H77.0206C75.9406 18.08 75.134 18.22 74.6006 18.5C74.0673 18.7667 73.8006 19.1867 73.8006 19.76C73.8006 20.1867 73.9473 20.52 74.2406 20.76C74.5473 21 74.974 21.12 75.5206 21.12ZM87.6591 23.2C86.4057 23.2 85.4991 22.9467 84.9391 22.44C84.3924 21.9333 84.1191 21.1 84.1191 19.94V14.74H81.8591V12.6H84.1191V9.2H86.8791V12.6H90.2591V14.74H86.8791V19.26C86.8791 19.8867 86.9791 20.3267 87.1791 20.58C87.3791 20.82 87.7391 20.94 88.2591 20.94C88.5391 20.94 88.8324 20.9133 89.1391 20.86C89.4591 20.8067 89.7524 20.7333 90.0191 20.64L90.2391 22.82C89.7857 22.9533 89.3524 23.0467 88.9391 23.1C88.5257 23.1667 88.0991 23.2 87.6591 23.2ZM92.6066 23V8.4H95.3666V13.82H95.4066C95.8332 13.34 96.3132 12.9867 96.8466 12.76C97.3932 12.52 98.0266 12.4 98.7466 12.4C100.027 12.4 100.96 12.74 101.547 13.42C102.133 14.0867 102.42 15.1467 102.407 16.6V23H99.6666V17.14C99.6799 16.2733 99.5332 15.6467 99.2266 15.26C98.9332 14.86 98.4666 14.66 97.8266 14.66C97.3466 14.66 96.9199 14.76 96.5466 14.96C96.1866 15.1467 95.8999 15.4067 95.6866 15.74C95.4732 16.0733 95.3666 16.4533 95.3666 16.88V23H92.6066ZM110.051 23.2C108.185 23.2 106.745 22.7333 105.731 21.8C104.731 20.8667 104.231 19.5333 104.231 17.8C104.231 16.12 104.691 14.8 105.611 13.84C106.531 12.88 107.798 12.4 109.411 12.4C110.971 12.4 112.171 12.8533 113.011 13.76C113.865 14.6667 114.291 15.9533 114.291 17.62C114.291 17.8067 114.285 18.02 114.271 18.26C114.271 18.5 114.265 18.68 114.251 18.8H105.771V16.9H112.111L111.731 17.48C111.731 16.44 111.538 15.6667 111.151 15.16C110.778 14.6533 110.198 14.4 109.411 14.4C108.585 14.4 107.965 14.6667 107.551 15.2C107.138 15.72 106.931 16.5 106.931 17.54V18.34C106.931 19.2733 107.178 19.96 107.671 20.4C108.165 20.84 108.918 21.06 109.931 21.06C110.505 21.06 111.111 21.0067 111.751 20.9C112.391 20.7933 112.958 20.6467 113.451 20.46L113.771 22.56C113.278 22.76 112.698 22.9133 112.031 23.02C111.378 23.14 110.718 23.2 110.051 23.2ZM116.357 23V12.6H118.997L119.017 14.54H119.077C119.423 14.0733 119.83 13.6867 120.297 13.38C120.777 13.06 121.297 12.82 121.857 12.66C122.43 12.4867 123.017 12.4 123.617 12.4V14.74C122.79 14.74 122.037 14.8933 121.357 15.2C120.677 15.5067 120.137 15.9267 119.737 16.46C119.337 16.98 119.137 17.56 119.137 18.2V23H116.357Z" fill="white"/>
<path d="M3.17863 50V43.505H0.973633V42.5H3.17863V41.045C3.17863 40.175 3.38863 39.525 3.80863 39.095C4.22863 38.665 4.86363 38.45 5.71363 38.45C5.96363 38.45 6.20863 38.47 6.44863 38.51C6.68863 38.55 6.91363 38.605 7.12363 38.675L6.95863 39.665C6.59863 39.545 6.23863 39.485 5.87863 39.485C5.33863 39.485 4.94863 39.61 4.70863 39.86C4.47863 40.11 4.36363 40.535 4.36363 41.135V42.5H7.09363V43.505H4.36363V50H3.17863ZM11.3521 50.15C10.1521 50.15 9.21711 49.795 8.54711 49.085C7.88711 48.375 7.55711 47.38 7.55711 46.1C7.55711 44.82 7.88711 43.825 8.54711 43.115C9.21711 42.405 10.1521 42.05 11.3521 42.05C12.5521 42.05 13.4821 42.405 14.1421 43.115C14.8121 43.825 15.1471 44.82 15.1471 46.1C15.1471 47.38 14.8121 48.375 14.1421 49.085C13.4821 49.795 12.5521 50.15 11.3521 50.15ZM11.3521 49.145C12.1921 49.145 12.8371 48.885 13.2871 48.365C13.7471 47.835 13.9771 47.08 13.9771 46.1C13.9771 45.12 13.7471 44.37 13.2871 43.85C12.8371 43.32 12.1921 43.055 11.3521 43.055C10.5221 43.055 9.87711 43.32 9.41711 43.85C8.95711 44.37 8.72711 45.12 8.72711 46.1C8.72711 47.08 8.95711 47.835 9.41711 48.365C9.87711 48.885 10.5221 49.145 11.3521 49.145ZM17.0491 50V42.2H18.1891L18.2041 43.835H18.2341C18.4641 43.465 18.7591 43.15 19.1191 42.89C19.4791 42.62 19.8891 42.415 20.3491 42.275C20.8091 42.125 21.2941 42.05 21.8041 42.05V43.1C21.1441 43.1 20.5441 43.235 20.0041 43.505C19.4641 43.775 19.0341 44.135 18.7141 44.585C18.4041 45.035 18.2491 45.54 18.2491 46.1V50H17.0491ZM28.3595 53.15L29.7695 49.91L26.6045 42.215L27.8645 42.2L30.3395 48.65H30.3695L32.9795 42.2H34.2545L29.6045 53.15H28.3595ZM38.7593 50.15C37.5593 50.15 36.6243 49.795 35.9543 49.085C35.2943 48.375 34.9643 47.38 34.9643 46.1C34.9643 44.82 35.2943 43.825 35.9543 43.115C36.6243 42.405 37.5593 42.05 38.7593 42.05C39.9593 42.05 40.8893 42.405 41.5493 43.115C42.2193 43.825 42.5543 44.82 42.5543 46.1C42.5543 47.38 42.2193 48.375 41.5493 49.085C40.8893 49.795 39.9593 50.15 38.7593 50.15ZM38.7593 49.145C39.5993 49.145 40.2443 48.885 40.6943 48.365C41.1543 47.835 41.3843 47.08 41.3843 46.1C41.3843 45.12 41.1543 44.37 40.6943 43.85C40.2443 43.32 39.5993 43.055 38.7593 43.055C37.9293 43.055 37.2843 43.32 36.8243 43.85C36.3643 44.37 36.1343 45.12 36.1343 46.1C36.1343 47.08 36.3643 47.835 36.8243 48.365C37.2843 48.885 37.9293 49.145 38.7593 49.145ZM46.843 50.15C45.913 50.15 45.228 49.895 44.788 49.385C44.358 48.865 44.143 48.07 44.143 47V42.2H45.328V46.79C45.328 47.6 45.473 48.195 45.763 48.575C46.053 48.955 46.508 49.145 47.128 49.145C47.608 49.145 48.028 49.05 48.388 48.86C48.758 48.66 49.043 48.395 49.243 48.065C49.453 47.725 49.558 47.335 49.558 46.895V42.2H50.743V50H49.603L49.588 48.95H49.558C49.268 49.34 48.893 49.64 48.433 49.85C47.973 50.05 47.443 50.15 46.843 50.15Z" fill="white"/>
<rect x="67" y="43" width="58" height="7" rx="3.5" fill="white"/>
</svg>
