<svg width="27" height="27" viewBox="0 0 27 27" fill="none" xmlns="http://www.w3.org/2000/svg">
<g clip-path="url(#clip0_3_597)">
<path d="M11.0581 22.127C13.3348 22.127 15.438 21.4331 17.1943 20.2623L23.5473 26.6152C24.0462 27.1139 24.8701 27.1139 25.3903 26.6152L26.6262 25.3793C27.1249 24.8806 27.1249 24.0567 26.6262 23.5363L20.2515 17.205C21.4222 15.4487 22.1162 13.3455 22.1162 11.0689C22.1162 4.97605 17.1509 0.0107422 11.0581 0.0107422C4.96531 0.0107422 0 4.97605 0 11.0689C0 17.1614 4.94362 22.127 11.0581 22.127ZM11.0581 4.34726C14.7658 4.34726 17.7797 7.36113 17.7797 11.0689C17.7797 14.7766 14.7658 17.7904 11.0581 17.7904C7.35039 17.7904 4.33651 14.7766 4.33651 11.0689C4.33651 7.36113 7.35039 4.34726 11.0581 4.34726Z" fill="black"/>
</g>
<defs>
<clipPath id="clip0_3_597">
<rect width="27" height="27" fill="white"/>
</clipPath>
</defs>
</svg>
