<svg width="67" height="67" viewBox="0 0 67 67" fill="none" xmlns="http://www.w3.org/2000/svg">
<path d="M29.3127 47.4583L11.1668 47.4583L11.1668 41.875L29.3127 41.875C31.0958 41.8756 32.8448 42.3642 34.3702 43.2878C35.8955 44.2114 37.139 45.5349 37.9659 47.1147C38.7928 48.6946 39.1716 50.4706 39.0613 52.2503C38.951 54.0301 38.3557 55.7457 37.34 57.2113C36.3243 58.6769 34.9269 59.8367 33.2991 60.5648C31.6714 61.293 29.8755 61.5618 28.1059 61.3422C26.3363 61.1226 24.6605 60.423 23.2602 59.319C21.8598 58.2151 20.7882 56.749 20.1616 55.0795L25.3904 53.117C25.6589 53.8325 26.118 54.4609 26.7182 54.9341C27.3183 55.4073 28.0364 55.7072 28.7948 55.8014C29.5532 55.8956 30.3229 55.7804 31.0206 55.4684C31.7182 55.1564 32.3171 54.6594 32.7525 54.0313C33.1879 53.4032 33.443 52.668 33.4904 51.9052C33.5377 51.1424 33.3754 50.3813 33.0211 49.7042C32.6667 49.0271 32.1338 48.4598 31.4801 48.0639C30.8265 47.6681 30.0769 47.4586 29.3127 47.4583ZM13.9585 30.7083L51.646 30.7083C53.4292 30.7089 55.1782 31.1975 56.7035 32.1212C58.2288 33.0448 59.4723 34.3682 60.2992 35.9481C61.1261 37.5279 61.505 39.3039 61.3946 41.0837C61.2843 42.8634 60.689 44.579 59.6733 46.0447C58.6576 47.5103 57.2602 48.67 55.6325 49.3982C54.0048 50.1263 52.2088 50.3952 50.4392 50.1756C48.6696 49.956 46.9938 49.2563 45.5935 48.1524C44.1931 47.0484 43.1216 45.5823 42.4949 43.9129L47.7237 41.9503C47.9922 42.6658 48.4514 43.2942 49.0515 43.7674C49.6516 44.2406 50.3698 44.5405 51.1282 44.6347C51.8866 44.7289 52.6563 44.6137 53.3539 44.3017C54.0515 43.9897 54.6505 43.4927 55.0858 42.8646C55.5212 42.2365 55.7764 41.5013 55.8237 40.7385C55.871 39.9758 55.7088 39.2146 55.3544 38.5375C55.0001 37.8604 54.4672 37.2932 53.8135 36.8973C53.1598 36.5014 52.4102 36.2919 51.646 36.2916L13.9585 36.2916C11.7373 36.2916 9.60709 35.4093 8.03648 33.8386C6.46586 32.268 5.5835 30.1378 5.5835 27.9166C5.5835 25.6954 6.46586 23.5652 8.03648 21.9946C9.60709 20.424 11.7373 19.5416 13.9585 19.5416L37.6877 19.5416C38.4519 19.5413 39.2015 19.3319 39.8551 18.936C40.5088 18.5401 41.0417 17.9729 41.3961 17.2958C41.7504 16.6186 41.9127 15.8575 41.8654 15.0947C41.818 14.332 41.5629 13.5967 41.1275 12.9686C40.6921 12.3405 40.0932 11.8435 39.3956 11.5315C38.6979 11.2195 37.9282 11.1044 37.1698 11.1986C36.4114 11.2927 35.6933 11.5927 35.0932 12.0658C34.493 12.539 34.0339 13.1674 33.7654 13.8829L28.5366 11.9232C29.3419 9.78142 30.8731 7.9901 32.8635 6.86135C34.8539 5.73259 37.1772 5.33795 39.4286 5.74618C41.6801 6.15442 43.7169 7.33965 45.1842 9.09537C46.6516 10.8511 47.4564 13.066 47.4585 15.3541C47.4585 17.9455 46.4291 20.4308 44.5967 22.2631C42.7643 24.0955 40.279 25.125 37.6877 25.125L13.9585 25.125C13.2181 25.125 12.508 25.4191 11.9845 25.9426C11.461 26.4662 11.1668 27.1762 11.1668 27.9166C11.1668 28.657 11.461 29.3671 11.9845 29.8906C12.508 30.4142 13.2181 30.7083 13.9585 30.7083Z" fill="#B9B9B9"/>
</svg>
